<?xml version="1.0" encoding="utf-8"?>
<!-- Generator: Adobe Illustrator 16.0.0, SVG Export Plug-In . SVG Version: 6.00 Build 0)  -->
<!DOCTYPE svg PUBLIC "-//W3C//DTD SVG 1.1//EN" "http://www.w3.org/Graphics/SVG/1.1/DTD/svg11.dtd">
<svg version="1.1" id="Layer_1" xmlns="http://www.w3.org/2000/svg" xmlns:xlink="http://www.w3.org/1999/xlink" x="0px" y="0px"
	 width="400px" height="240px" viewBox="124.959 204.459 400 240" enable-background="new 124.959 204.459 400 240"
	 xml:space="preserve">
<g id="Kit_1_" enable-background="new    ">
	<g id="Kit">
		<g>
			<path fill="#FFFFFF" d="M275.175,244.071h-46.481l-42.164,90.676l43.688,87.121h51.308l-49.021-90.423L275.175,244.071z
				 M137.763,421.869h43.18V244.071h-43.18V421.869z M293.465,421.869h30.227V297.406h-30.227V421.869z M335.78,297.406v24.715
				h28.805v99.748h30.227v-99.748h28.981v-24.715H335.78L335.78,297.406z"/>
		</g>
	</g>
</g>
<g id="z_2_" enable-background="new    ">
	<path fill="#FF8400" d="M429.531,393.934v27.562h83.033c0,0,0-1.423,0-24.715h-46.939l43.562-72.188v-27.56h-76.635
		c0,0,0,1.245,0,24.715h40.54L429.531,393.934z"/>
</g>
<g id="large.svg_1_" enable-background="new    ">
	<g id="large.svg">
		<g>
			<path fill="#EBD6B7" d="M500.938,243.97h-13.262c0.166-0.64,0.264-1.308,0.264-2v-5c0-4.417-3.581-7.999-7.999-7.999h-19.997
				c-4.418,0-7.999,3.582-7.999,7.999v5c0,0.692,0.097,1.36,0.263,2h-13.262c-4.417,0-7.999,3.582-7.999,7.999v24.997
				c0,4.417,3.582,7.999,7.999,7.999h61.992c4.418,0,7.998-3.582,7.998-7.999v-24.997
				C508.936,247.551,505.355,243.97,500.938,243.97z M480.94,243.97h-21.997v-7.999h21.997V243.97z"/>
		</g>
	</g>
</g>
<g id="medium.svg_1_" enable-background="new    ">
	<g id="medium.svg">
		<g>
			<path fill="#EBD6B7" d="M416.948,243.97h-18.997v-7c0-4.417-3.582-7.999-7.999-7.999h-19.998c-4.417,0-7.999,3.582-7.999,7.999v7
				h-18.997c-4.418,0-7.999,3.582-7.999,7.999v24.997c0,4.417,3.581,7.999,7.999,7.999h73.99c4.418,0,7.999-3.582,7.999-7.999
				v-24.997C424.947,247.551,421.366,243.97,416.948,243.97z M390.952,243.97h-21.998v-7.999h21.998V243.97z"/>
		</g>
	</g>
</g>
<g id="small.svg_1_" enable-background="new    ">
	<g id="small.svg">
		<g>
			<path fill="#EBD6B7" d="M317.855,244.205c0.062-0.404,0.104-0.814,0.104-1.235v-6c0-4.417-3.582-7.999-7.999-7.999h-4
				c-4.418,0-7.999,3.582-7.999,7.999v6c0,0.421,0.042,0.832,0.105,1.235c-3.501,0.852-6.104,4-6.104,7.764v24.997
				c0,4.417,3.582,7.999,7.999,7.999h15.998c4.417,0,7.999-3.582,7.999-7.999v-24.997
				C323.959,248.206,321.356,245.057,317.855,244.205z M310.961,236.97v7h-6v-7H310.961z"/>
		</g>
	</g>
</g>
</svg>
